<?xml version="1.0" encoding="utf-8"?>
<!-- Generator: Adobe Illustrator 17.0.0, SVG Export Plug-In . SVG Version: 6.00 Build 0)  -->
<!DOCTYPE svg PUBLIC "-//W3C//DTD SVG 1.1//EN" "http://www.w3.org/Graphics/SVG/1.1/DTD/svg11.dtd">
<svg version="1.1" id="Layer_1" xmlns="http://www.w3.org/2000/svg" xmlns:xlink="http://www.w3.org/1999/xlink" x="0px" y="0px"
	 width="72px" height="50px" viewBox="0 0 72 50" enable-background="new 0 0 72 50" xml:space="preserve">
<path fill="#FFFFFF" d="M69.334,29.401c0.542,1.523,0.814,3.044,0.814,4.564v0.651c0,4.132-1.304,7.636-3.912,10.514
	c-2.607,2.881-6.356,4.319-11.247,4.319c-5.108,0-8.911-1.492-11.409-4.482c-2.501-2.987-3.749-6.545-3.749-10.676v-1.956
	c0-2.935,0.433-5.84,1.304-8.721c0.868-2.878,2.063-5.677,3.586-8.395c1.521-2.715,3.285-5.323,5.298-7.824
	c2.009-2.499,4.101-4.781,6.275-6.846h15.484c-3.695,2.827-6.874,6.113-9.535,9.862c-2.664,3.749-4.538,7.31-5.623,10.676h0.651
	c2.063,0,3.912,0.382,5.542,1.141c1.63,0.761,2.987,1.768,4.075,3.016C67.973,26.496,68.789,27.881,69.334,29.401z M32.17,0.55
	H16.685c-2.175,2.065-4.266,4.348-6.275,6.846c-2.012,2.501-3.777,5.109-5.297,7.824c-1.523,2.718-2.718,5.517-3.586,8.395
	c-0.871,2.881-1.304,5.787-1.304,8.721v1.956c0,4.131,1.248,7.688,3.749,10.676c2.499,2.99,6.301,4.482,11.41,4.482
	c4.89,0,8.639-1.438,11.247-4.319c2.607-2.878,3.912-6.382,3.912-10.514v-0.651c0-1.521-0.272-3.041-0.815-4.564
	c-0.545-1.521-1.36-2.905-2.445-4.156c-1.087-1.248-2.444-2.254-4.074-3.016c-1.63-0.759-3.479-1.141-5.542-1.141h-0.652
	c1.085-3.367,2.959-6.927,5.623-10.676C25.296,6.663,28.475,3.377,32.17,0.55z"/>
</svg>
