<?xml version="1.0" encoding="utf-8"?>
<!-- Generator: Adobe Illustrator 17.0.0, SVG Export Plug-In . SVG Version: 6.00 Build 0)  -->
<!DOCTYPE svg PUBLIC "-//W3C//DTD SVG 1.1//EN" "http://www.w3.org/Graphics/SVG/1.1/DTD/svg11.dtd">
<svg version="1.1" id="Layer_1" xmlns="http://www.w3.org/2000/svg" xmlns:xlink="http://www.w3.org/1999/xlink" x="0px" y="0px"
	 width="282px" height="66px" viewBox="-1.366 0 282 66" enable-background="new -1.366 0 282 66" xml:space="preserve">
<text transform="matrix(1 0 0 1 76.4997 49.8337)" display="none"><tspan x="0" y="0" display="inline" font-family="'Montserrat-SemiBold'" font-size="48">S</tspan><tspan x="29.616" y="0" display="inline" font-family="'Montserrat-SemiBold'" font-size="48" letter-spacing="-2">u</tspan><tspan x="58.655" y="0" display="inline" font-family="'Montserrat-SemiBold'" font-size="48" letter-spacing="-1">bli</tspan><tspan x="116.685" y="0" display="inline" font-family="'Montserrat-SemiBold'" font-size="48" letter-spacing="-1">m</tspan><tspan x="165.357" y="0" display="inline" font-family="'Montserrat-SemiBold'" font-size="48" letter-spacing="-1">e.</tspan></text>
<g>
	<path fill="#FFFFFF" d="M106.696,40.33c0,6.576-5.712,10.129-13.153,10.129c-5.521,0-11.041-2.112-14.833-5.329l3.024-6.192
		c3.456,3.072,8.353,5.04,11.905,5.04c3.121,0,4.993-1.151,4.993-3.216c0-6.337-17.906-2.641-17.906-14.545
		c0-6.097,5.232-9.937,13.009-9.937c4.705,0,9.409,1.44,12.769,3.648l-2.928,6.289c-3.552-2.112-7.777-3.457-10.465-3.457
		c-2.544,0-4.272,0.912-4.272,2.736C88.839,31.688,106.745,28.232,106.696,40.33z M128.104,37.161c0,3.744-2.16,6.529-5.712,6.577
		c-2.977,0-4.849-1.969-4.849-5.232V24.392h-7.393v16.226c0,6.096,3.601,9.889,9.313,9.889c3.888,0,6.864-1.584,8.641-4.849v4.561
		h7.345V24.392h-7.345V37.161z M167.896,37.449c0,7.825-4.752,13.058-12.001,13.058c-3.601,0-6.433-1.44-8.305-4.032v3.744h-7.393
		v-35.62h7.393v13.585c1.824-2.592,4.656-4.033,8.16-4.033C163,24.152,167.896,29.48,167.896,37.449z M160.408,37.209
		c0-4.128-2.593-7.104-6.385-7.104c-3.793,0-6.433,2.928-6.433,7.104c0,4.272,2.64,7.153,6.433,7.153
		C157.815,44.362,160.408,41.433,160.408,37.209z M171.589,50.219h7.393v-35.62h-7.393V50.219z M184.933,50.219h7.393V24.392h-7.393
		V50.219z M188.63,20.743c2.111,0,3.6-1.584,3.6-3.696c0-2.16-1.488-3.696-3.6-3.696c-2.112,0-3.601,1.536-3.601,3.696
		C185.029,19.159,186.517,20.743,188.63,20.743z M232.167,24.104c-4.368,0.048-7.633,1.968-9.313,5.953
		c-1.248-3.745-4.368-5.953-8.736-5.953c-3.889,0.048-6.912,1.584-8.736,4.752v-4.464h-7.393v25.827h7.393v-12.77
		c0-3.745,2.16-6.529,5.76-6.577c3.024,0,4.944,1.968,4.944,5.281v14.065h7.345v-12.77c0-3.745,2.16-6.529,5.713-6.577
		c3.072,0,4.992,1.968,4.992,5.281v14.065h7.345V33.993C241.479,27.944,237.879,24.104,232.167,24.104z M270.422,39.561h-18.529
		c0.863,3.265,3.36,5.185,6.672,5.185c2.448,0,4.753-0.96,6.529-2.736l3.888,3.937c-2.592,2.88-6.385,4.561-11.041,4.561
		c-8.257,0-13.489-5.28-13.489-13.105c0-7.969,5.425-13.25,13.298-13.25C266.821,24.152,271.046,30.152,270.422,39.561z
		 M263.508,35.193c-0.096-3.409-2.304-5.617-5.712-5.617c-3.265,0-5.473,2.208-6.049,5.617H263.508z M275.938,43.017
		c-2.112,0-3.696,1.536-3.696,3.793c0,2.208,1.584,3.84,3.696,3.84c2.16,0,3.696-1.632,3.696-3.84
		C279.634,44.553,278.098,43.017,275.938,43.017z"/>
	<path fill="#FFFFFF" d="M29.634,0.273l-30,16.364v33.085l30,16.006l30-16.006V16.813L29.634,0.273z M26.907,58.09L8.732,48.396
		l11.457-7.639c2.945-1.961-0.18-6.434-3.39-4.295L5.088,44.266V22.717l21.818,11.899L26.907,58.09L26.907,58.09z M8.179,18.19
		L26.907,7.974v12.071c0,3.608,5.455,3.611,5.455,0V8.004l18.845,10.394L29.648,29.903C29.648,29.902,8.179,18.19,8.179,18.19z
		 M32.361,34.635l21.818-11.642v21.273l-11.626-7.751c-3.221-2.141-6.335,2.332-3.395,4.293l11.378,7.585l-18.175,9.698
		C32.361,58.091,32.361,34.635,32.361,34.635z"/>
</g>
</svg>
